<?xml version="1.0" encoding="utf-8"?>
<!-- Generator: Adobe Illustrator 16.0.0, SVG Export Plug-In . SVG Version: 6.00 Build 0)  -->
<!DOCTYPE svg PUBLIC "-//W3C//DTD SVG 1.1//EN" "http://www.w3.org/Graphics/SVG/1.1/DTD/svg11.dtd">
<svg version="1.1" id="Layer_1" xmlns="http://www.w3.org/2000/svg" xmlns:xlink="http://www.w3.org/1999/xlink" x="0px" y="0px"
	 width="271.1px" height="87.625px" viewBox="0 0 271.1 87.625" enable-background="new 0 0 271.1 87.625" xml:space="preserve">
<g>
	<path fill="#FFFFFF" d="M142.722,87.431h-1.05v-7.612h1.05V87.431z"/>
	<path fill="#FFFFFF" d="M150.462,87.431h-0.981l-4.063-5.924v5.924h-0.947v-7.612h0.981l4.063,5.957v-5.957h0.947V87.431z"/>
	<path fill="#FFFFFF" d="M157.132,80.731h-2.34v6.7h-1.05v-6.7h-2.374v-0.912h5.764V80.731z"/>
	<path fill="#FFFFFF" d="M163.48,80.731h-4.371v2.328h3.801v0.914h-3.801v2.545h4.543v0.913h-5.593v-7.612h5.421V80.731z"/>
	<path fill="#FFFFFF" d="M165.962,87.431h-1.05v-7.612h3.333c0.913,0,1.529,0.193,1.985,0.615c0.423,0.412,0.65,0.947,0.65,1.587
		c0,0.673-0.217,1.256-0.616,1.599c-0.296,0.262-0.604,0.388-1.21,0.502l2.169,3.31h-1.198l-2.055-3.219h-2.009V87.431z
		 M168.324,83.333c0.583,0,0.948-0.114,1.188-0.365c0.194-0.217,0.309-0.548,0.309-0.901c0-0.422-0.16-0.799-0.435-1.039
		c-0.251-0.229-0.57-0.33-1.072-0.33h-2.352v2.636H168.324z"/>
	<path fill="#FFFFFF" d="M173.568,85.103l-0.879,2.328h-1.118l2.968-7.612h1.061l2.785,7.612h-1.118l-0.833-2.328H173.568z
		 M175.041,81.131l-1.142,3.093h2.226L175.041,81.131z"/>
	<path fill="#FFFFFF" d="M185.088,82.284c-0.183-0.582-0.354-0.867-0.685-1.188c-0.445-0.41-1.084-0.639-1.769-0.639
		c-1.667,0-2.66,1.188-2.66,3.162s1.027,3.172,2.717,3.172c0.753,0,1.393-0.285,1.804-0.799c0.285-0.354,0.422-0.65,0.628-1.324
		l1.118,0.172c-0.285,0.845-0.536,1.289-1.005,1.77c-0.673,0.685-1.518,1.016-2.613,1.016c-2.317,0-3.789-1.529-3.789-3.915
		c0-2.478,1.495-4.086,3.789-4.086c1.096,0,2.043,0.354,2.693,1.004c0.399,0.388,0.616,0.765,0.867,1.483L185.088,82.284z"/>
	<path fill="#FFFFFF" d="M192.307,80.731h-2.34v6.7h-1.05v-6.7h-2.374v-0.912h5.764V80.731z"/>
	<path fill="#FFFFFF" d="M194.284,87.431h-1.05v-7.612h1.05V87.431z"/>
	<path fill="#FFFFFF" d="M197.801,87.431l-2.567-7.612h1.106l2.01,6.174l2.065-6.174h1.096l-2.671,7.612H197.801z"/>
	<path fill="#FFFFFF" d="M207.883,80.731h-4.371v2.328h3.801v0.914h-3.801v2.545h4.543v0.913h-5.593v-7.612h5.421V80.731z"/>
	<path fill="#FFFFFF" d="M213.162,87.431h-1.05v-7.612h3.526c0.765,0,1.256,0.148,1.655,0.49c0.423,0.365,0.662,0.959,0.662,1.666
		c0,0.697-0.229,1.302-0.65,1.689c-0.399,0.365-0.913,0.514-1.758,0.514h-2.386V87.431z M215.456,83.265
		c0.548,0,0.856-0.103,1.107-0.365c0.217-0.239,0.331-0.548,0.331-0.925c0-0.821-0.468-1.244-1.381-1.244h-2.352v2.534H215.456z"/>
	<path fill="#FFFFFF" d="M220.186,86.518h3.789v0.913h-4.839v-7.612h1.05V86.518z"/>
	<path fill="#FFFFFF" d="M226.17,85.103l-0.879,2.328h-1.118l2.968-7.612h1.061l2.785,7.612h-1.118l-0.833-2.328H226.17z
		 M227.643,81.131l-1.142,3.093h2.226L227.643,81.131z"/>
	<path fill="#FFFFFF" d="M236.16,80.731h-2.34v6.7h-1.05v-6.7h-2.374v-0.912h5.764V80.731z"/>
	<path fill="#FFFFFF" d="M242.054,80.731h-3.915v2.227h3.606v0.912h-3.606v3.562h-1.05v-7.612h4.965V80.731z"/>
	<path fill="#FFFFFF" d="M250.537,83.676c0,2.26-1.655,3.949-3.847,3.949c-2.214,0-3.846-1.689-3.846-3.995s1.632-4.006,3.835-4.006
		C248.939,79.625,250.537,81.302,250.537,83.676z M243.985,83.62c0,1.871,1.107,3.172,2.705,3.172c1.575,0,2.705-1.301,2.705-3.127
		c0-1.918-1.096-3.207-2.705-3.207C245.093,80.458,243.985,81.758,243.985,83.62z"/>
	<path fill="#FFFFFF" d="M253.019,87.431h-1.05v-7.612h3.333c0.913,0,1.529,0.193,1.985,0.615c0.423,0.412,0.65,0.947,0.65,1.587
		c0,0.673-0.217,1.256-0.616,1.599c-0.296,0.262-0.604,0.388-1.21,0.502l2.169,3.31h-1.198l-2.055-3.219h-2.009V87.431z
		 M255.381,83.333c0.583,0,0.948-0.114,1.188-0.365c0.194-0.217,0.309-0.548,0.309-0.901c0-0.422-0.16-0.799-0.435-1.039
		c-0.251-0.229-0.57-0.33-1.072-0.33h-2.352v2.636H255.381z"/>
	<path fill="#FFFFFF" d="M266.64,87.431h-0.992v-5.935l-2.191,5.935h-0.845l-2.191-5.935v5.935h-0.993v-7.612h1.381l2.237,6.151
		l2.214-6.151h1.381V87.431z"/>
</g>
<g>
	<g>
		<g>
			<path fill="#FFFFFF" d="M2.078,75.743l-0.455-0.04l-1.155,0.125l-0.403-0.302L0,74.303l0.173-0.396l-0.087-0.447l0.145-0.911
				l-0.02-0.386l0.146-0.912L0.5,70.275l0.148-0.847l0.041-0.455l0.153-0.783l0.041-0.453l0.043-0.389l0.182-1.496l0.172-0.395
				l0.021-0.842l0.04-0.453l0.108-0.392l0.214-0.853l0.044-0.39l0.023-0.776l-0.017-0.32l0.289-0.662l-0.038-0.707l0.109-0.393
				L2.05,59.219l0.173-0.396l0.016-0.969l0.121-1.362l0.17-0.462l0.036-0.518l0.019-0.904l0.104-0.458l0.043-0.39l0.105-0.457
				l0.046-0.389l0.145-0.91l0.039-0.521l0.077-0.973l0.14-1.039l0.148-0.848l-0.041-0.771l0.021-0.841l0.104-0.457l0.17-0.46
				l0.021-0.84l0.045-0.39l0.202-1.043l0.028-0.712l-0.078-0.254l0.148-0.847l0.045-0.388l0.003-1.162l0.103-0.523l0.146-0.911
				l0.163-0.588l0.024-0.776L4.64,37.2l-0.026-0.516l0.105-0.457l0.041-0.454l-0.021-0.386l0.106-0.457l0.202-1.044l0.041-0.454
				l0.037-0.518l0.146-0.912l0.038-0.519l0.213-0.851l0.501-0.285l3.35-0.175l0.832-0.108l0.84,0.02l0.385-0.083l4.312-0.227
				l0.455,0.042l0.962-0.116l0.901-0.045l0.972,0.077l0.516-0.026l0.844,0.084l1.361,0.122l1.04,0.139l0.458,0.105l0.467,0.298
				l0.461,0.168l0.861,0.409l0.605,0.483l0.273,0.308l0.414,0.496l0.41,0.429l0.22,0.506l0.431,0.816l0.152,0.443l0.294,0.694
				l0.102,0.705l0.089,0.448l0.229,0.696l-0.03,0.647l0.115,0.963l0.023,0.451l0.102,0.705l-0.027,0.71l-0.091,0.716l-0.041,0.455
				l-0.055,1.422l-0.083,0.909l-0.169,0.46l-0.036,0.519l-0.17,0.461l-0.043,0.39l-0.11,0.393l-0.145,0.912l-0.167,0.524
				l-0.273,0.917l-0.453,1.252l-0.284,0.725l-0.409,0.797l-0.528,0.996l-0.366,0.404l-0.41,0.798l-0.555,0.544l-0.416,0.668
				l-0.297,0.467l-0.805,0.688l-0.301,0.404l-0.879,0.498l-0.634,0.228l-0.814,0.428l-1.014,0.377l-0.765,0.169l-0.835,0.109
				l-0.896,0.175l-1.795,0.224h-1.227l-1.415,0.074l-0.971-0.014l0.007,0.127l-0.041,0.455l-0.165,0.525l-0.021,0.84l-0.111,0.33
				l-0.022,0.841l-0.043,0.388l-0.041,0.455l-0.107,0.393l-0.041,0.455l0.02,0.386l-0.145,0.91l-0.163,0.59l-0.09,0.779
				l-0.105,0.459l-0.151,0.782L9.729,67.79l-0.169,0.459l0.033,0.645L9.45,69.87l0.047,0.901L9.262,71.17l0.026,0.516l-0.041,0.455
				L9.14,72.534l-0.041,0.453l-0.166,0.525l-0.034,0.582l-0.037,0.518l-0.152,0.783l-0.448,0.089l-5.149,0.27L2.078,75.743z
				 M13.592,50.351l0.7-0.166l1.218-0.192l0.44-0.217l0.989-0.826l0.676-0.682l0.413-0.731l0.237-0.399l0.274-0.918l0.1-0.585
				l0.226-0.593l0.201-1.108l0.162-1.815l0.041-1.682l-0.057-1.093l-0.297-0.759l-0.419-0.561l-0.735-0.477l-0.586-0.099
				l-1.74,0.026l-1.477,0.142l-0.445,0.153l-0.282,0.789l-0.11,0.329l-0.031,0.648l-0.071,1.099l-0.104,0.458l-0.154,0.783
				l-0.125,1.297l-0.095,0.651l-0.139,1.04l-0.023,0.776l0.026,0.515l-0.098,0.587l-0.238,1.628l0.031,0.578l-0.146,0.912
				l-0.034,0.582L13.592,50.351z"/>
			<path fill="#FFFFFF" d="M28.148,74.119l-0.277-0.374l-0.088-0.445l-0.084-0.383l0.043-0.39l0.225-0.657l0.159-0.654l0.041-0.455
				l0.044-0.387l0.213-0.853l-0.05-0.966l0.214-0.85l-0.023-0.453l0.043-0.388l0.086-0.844l0.098-0.585l-0.04-0.773l0.274-0.918
				l0.108-0.393l0.169-0.461l-0.084-0.384l0.149-0.845l0.169-0.463l-0.021-0.387l0.046-0.389l0.08-0.908l0.109-0.392l-0.048-0.901
				l0.044-0.392l0.041-0.454l-0.02-0.387l0.209-0.913l-0.023-0.45l0.275-0.919l0.155-1.944l0.212-0.916l-0.018-0.322l0.291-1.821
				l0.086-0.843l0.089-0.781l0.277-0.852l0.037-0.52l-0.048-0.901l0.278-0.854l-0.023-0.452l0.089-0.778l0.122-1.361l-0.093-0.511
				l0.166-0.527l0.211-0.916l0.102-0.519l-0.152-0.444l0.104-0.521l0.019-0.841l0.093-0.715l0.237-0.4l-0.023-0.45l0.04-0.453
				l-0.021-0.388l0.235-0.463l0.011-1.033l0.139-1.042l0.218-0.786l0.022-0.776l-0.022-0.45l0.108-0.392l0.254-1.305l0.172-0.397
				l1.025-0.183l1.544-0.081l2.386-0.059l2.51-0.132l1.291-0.004l0.233,0.763l-0.041,0.453l0.023,0.453l-0.304,1.565l0.023,0.448
				l-0.109,0.393l-0.121,1.363l-0.093,0.714l-0.095,0.65l-0.396,2.281l-0.146,0.912l0.027,0.515L41.143,40l-0.081,0.908
				l-0.234,0.465l0.156,0.508l-0.103,0.521l-0.041,0.455l-0.104,0.457l-0.146,0.911l-0.15,0.846l-0.232,0.465l0.091,0.512
				l-0.105,0.457l0.027,0.515l-0.12,1.364l-0.107,0.454l0.047,0.903l-0.104,0.457l-0.143,0.975l-0.041,0.455l-0.203,1.043
				l-0.016,0.969l-0.146,0.912l-0.037,0.518l-0.041,0.455l-0.202,1.043l0.023,0.451l-0.103,0.521l-0.017,0.903l-0.215,0.852
				l-0.02,0.841l-0.098,0.584l0.033,0.645l-0.041,0.456l-0.043,0.388l-0.105,0.458l-0.027,0.712l-0.096,0.65l0.034,0.645
				l0.339,0.303l0.643-0.031L40,64.978l3.348-0.177l1.412-0.139l1.674-0.088l0.396,0.173l-0.014,0.968l-0.105,0.459l0.088,0.447
				l-0.166,0.525l-0.203,2.271l-0.17,0.459l0.023,0.45l-0.044,0.391L46.16,71.69l-0.203,1.043l-0.491,0.479l-1.223,0.063
				l-0.831,0.173l-1.405,0.268l-1.161-0.006l-0.964,0.117l-0.908-0.082l-1.283,0.132l-5.278,0.276l-0.641,0.099l-1.803,0.095
				l-0.454-0.041l-0.835,0.108L28.148,74.119z"/>
			<path fill="#FFFFFF" d="M49.938,73.299l-0.454-0.042l-4.704,0.184l-0.585-0.099l-0.156-0.51l0.106-0.455l0.043-0.391l0.346-0.793
				l0.471-0.865l0.543-1.963l0.347-0.793l0.281-0.79l0.628-1.581l0.213-0.852l0.454-1.186l0.108-0.392l0.298-0.469l0.281-0.79
				l0.108-0.394l0.041-0.452l0.173-0.397l0.278-0.853l0.17-0.461l0.403-0.926l0.104-0.457l0.099-0.587l0.296-0.53l0.345-0.793
				l0.105-0.459l0.34-0.92l0.045-0.39l0.168-0.462l0.174-0.396l0.274-0.918l0.173-0.395l0.42-1.832l0.166-0.523l0.408-0.861
				l0.264-1.111l0.35-0.729l0.173-0.396l0.149-0.846l0.297-0.468l0.148-0.846l0.112-0.329l0.344-0.857l0.146-0.912l0.297-0.468
				l0.238-0.399l0.443-1.378l0.278-0.854l0.172-0.398l0.356-0.598l0.159-0.655l0.17-0.46l0.52-1.19l0.104-0.458l0.174-0.396
				l0.109-0.393l0.104-0.458l0.35-0.728l0.238-0.4l0.11-0.329l0.325-1.179l0.408-0.861l0.519-1.188l0.169-0.461l0.173-0.396
				l0.22-0.721l0.449-0.088l0.642-0.035h1.228l0.642-0.097l1.028-0.054l1.221-0.129l0.579-0.03l0.457,0.105l0.577-0.095l1.029-0.054
				l0.328,0.112l0.469,0.297l0.338,2.758l0.073,1.417l0.149,0.379l0.061,1.159l0.186,2.315l0.048,0.902l0.107,0.833l0.198,1.281
				l0.046,0.901l0.116,0.962l-0.041,0.453l0.074,1.417l0.176,0.895l0.066,1.287l0.112,0.897l-0.045,0.39l0.109,0.835l0.02,0.385
				l0.118,1.026l0.166,0.702l0.131,2.512l0.106,0.768l0.091,0.512l0.102,1.932l0.219,2.957l0.025,0.45l0.113,0.964l-0.014,0.969
				l0.111,0.898l-0.039,0.453l0.257,2.44l0.019,0.386l0.109,0.834l0.087,0.445l0.052,0.967l-0.018,0.904l0.091,0.512l0.03,0.579
				l0.139,1.413l0.07,1.352c0.078,0.254,0.174,0.832-0.138,1.041c-0.255,0.078-0.45,0.023-0.708,0.037l-0.447,0.088l-0.52-0.038
				l-0.899,0.047l-1.415,0.14l-0.516,0.025l-0.774-0.023l-0.447,0.089l-0.64,0.099l-0.842-0.021l-0.965,0.051l-0.268-0.18
				l-0.162-0.639l-0.125-1.152l-0.099-0.641l0.031-0.647l-0.159-3.026l-0.091-0.512l-1.42,0.011l-1.037-0.075l-2.836,0.084
				l-1.737,0.091l-0.285,0.726l-0.407,0.859l-0.104,0.459l-0.17,0.459l-0.217,0.787l-0.58,1.257L54.163,71.4l-0.156,0.72
				l-0.177,0.33l-0.234,0.464l-0.373,0.278l-1.805,0.029l-0.512,0.092L49.938,73.299z M62.646,57.141l0.369-0.344l0.018-0.902
				l-0.092-0.514l0.037-0.518l-0.088-1.673l0.041-0.454l-0.058-1.094l0.103-0.523l-0.146-1.541l-0.063-2.449l-0.058-2.321
				l-0.142-1.478l-0.506,0.219L61.85,44.4l-0.268,1.048l-0.159,0.653l-0.269,1.047l-0.229,0.529L60.7,48.335l-0.04,0.452
				l-0.235,0.465l-0.162,0.59l-0.171,0.46l-0.16,0.59l-0.313,1.437l-0.041,0.455l-0.271,0.982l-0.234,0.464l-0.265,1.111
				l-0.106,0.456l-0.096,0.587l-0.172,0.461l0.472,0.362l0.516-0.026l0.712,0.026l0.582,0.035L62.646,57.141z"/>
			<path fill="#FFFFFF" d="M77.657,71.718l-0.965,0.05l-0.729-0.35l-0.108-0.833l0.089-0.778l0.084-0.845l-0.084-0.384l0.104-0.457
				l0.043-0.389l0.042-0.455l0.108-0.391l-0.037-0.709l0.162-0.59l0.249-1.434l0.026-0.713l0.085-0.842l0.17-0.461l0.079-0.972
				l0.145-0.913l0.166-0.523l-0.034-0.645l0.14-1.04l0.214-0.851l0.043-0.391l-0.022-0.449l0.221-0.723l0.023-0.776l0.265-1.109
				l-0.104-0.771l-0.229-0.634l-0.093-0.575l0.036-0.518l-0.152-0.444l-0.18-0.96l-0.243-0.955l-0.027-0.516l-0.216-0.439
				l-0.178-0.895l0.046-0.391l-0.243-0.954l-0.256-1.15l-0.088-0.446l-0.232-0.762l-0.303-0.825l-0.172-0.829l-0.023-0.452
				l-0.247-1.019l-0.372-0.948l-0.093-0.512l-0.211-1.603l-0.157-0.508l0.024-0.776l-0.216-0.439l-0.18-0.96l-0.023-0.451
				l-0.307-0.888L73.34,31.21l-0.108-0.833l-0.085-0.382l-0.176-0.894l-0.107-0.835l-0.035-0.643l0.166-0.525l0.315-0.145
				l0.512-0.093l1.671-0.151l0.904,0.018l0.641-0.099l0.453,0.041l0.703-0.167l1.741-0.026l0.964-0.051l0.75,0.736l0.227,0.633
				l0.078,1.481l0.22,0.503l0.034,0.645l0.284,0.501l0.223,1.796l-0.044,0.39l0.24,0.891l0.152,0.444l0.292,0.631l-0.031,0.647
				l0.108,0.832l0.227,0.634l0.031,0.579l0.168,0.766l0.347,1.659l0.114,0.963l0.262,0.052l0.176-0.333l0.107-0.392l0.113-0.329
				l0.346-0.792l0.233-0.465l0.044-0.39l0.475-0.799l0.281-0.79l0.35-0.727l0.563-1.58l0.344-0.856l0.235-0.4l0.042-0.454
				l0.471-0.865l0.108-0.392l0.104-0.457l0.512-1.318l0.34-0.922l0.278-0.854l0.173-0.395l0.352-0.667l0.602-0.871l0.436-0.28
				l2.117-0.24l0.975,0.078l1.025-0.119l1.674-0.088l0.715,0.093l1.283-0.132l0.729,0.35l0.044,0.836l-0.149,0.847l-0.111,0.329
				l-0.478,0.734l-0.109,0.392l-0.345,0.794l-0.237,0.401l-0.041,0.453l-0.347,0.793l-0.239,0.335l-0.218,0.786l-0.477,0.735
				l-0.106,0.457l-0.237,0.399l-0.108,0.395l-0.515,1.253l-0.366,0.405l-0.339,0.923l-0.475,0.8l-0.045,0.39l-0.236,0.398
				l-0.107,0.394l-0.587,1.128l-0.278,0.853l-0.17,0.462l-0.108,0.393l-0.409,0.795l-0.113,0.33l-0.301,0.403l-0.045,0.391
				l-0.6,0.87l-0.237,0.4l-0.234,0.463l-0.342,0.858l-0.353,0.664l-0.455,1.184l-0.475,0.801l-0.342,0.857l-0.365,0.407
				l-0.178,0.332l-0.172,0.395l-0.41,0.796l-0.218,0.787l-0.24,0.335l-0.103,0.522l-0.176,0.332l-0.305,0.339l-0.096,0.649
				l0.023,0.451l-0.213,0.852l-0.156,0.717l-0.095,0.65l-0.089,0.779l-0.107,0.395l0.084,0.382l-0.15,0.848l-0.145,0.911
				l-0.207,0.979l-0.211,0.913l-0.041,0.455l-0.159,0.654l-0.104,0.455l0.021,0.388l-0.082,0.907l-0.143,0.978l-0.104,0.458
				l-0.207,0.979l-0.146,0.912l-0.133,1.166l-0.25,1.369l-2.318,0.123l-0.518-0.037l-0.383,0.083l-0.58,0.031l-0.968-0.015
				l-0.384,0.085l-1.352,0.069L77.657,71.718z"/>
			<path fill="#FFFFFF" d="M107.897,70.778l-0.45,0.024l-1.039-0.075l-0.386,0.021l-1.106-0.201l-0.654-0.159l-1.109-0.2
				l-0.924-0.403l-0.938-0.662l-0.529-0.229l-0.681-0.674l-0.273-0.309l-0.21-0.313l-0.492-0.748l-0.474-0.428l-0.224-0.568
				l-0.228-0.635l-0.09-0.512l-0.291-0.631l-0.218-0.441l-0.021-0.384l-0.328-1.339l0.003-1.162l0.097-0.65l-0.048-0.902
				l0.051-0.261l-0.044-0.835l0.042-0.455l0.042-0.39l0.021-0.841l0.041-0.453l0.085-0.845l-0.153-0.442l0.213-0.852l-0.043-0.837
				l0.147-0.911l0.013-0.969l0.21-0.914l0.011-1.033l0.038-0.521l0.209-0.913l0.082-0.907l0.251-1.371l0.15-0.845l-0.096-0.577
				l0.16-0.654l0.04-0.453l0.21-0.916l0.156-0.719l0.085-0.843l0.037-0.518l0.228-0.593l0.027-0.712l0.105-0.457l0.043-0.391
				l0.174-0.395l0.04-0.456l0.173-0.395l0.105-0.458l0.172-0.396l0.281-0.791l0.049-0.325l0.217-0.786l0.211-0.915l0.171-0.397
				l0.167-0.525l0.343-0.856l0.173-0.397l0.105-0.457l0.291-0.596l0.285-0.726l0.24-0.334l0.173-0.397l0.241-0.335l0.668-0.81
				l0.803-0.688l0.816-0.43l0.813-0.495l0.82-0.367l0.823-0.3l1.024-0.184l0.891-0.24l1.932-0.101l1.734-0.157l0.842,0.021
				l0.842,0.084l0.521,0.102l0.838-0.043l1.104,0.136l0.461,0.17l1.118,0.392l0.918,0.276l0.807,0.603l0.948,0.854l0.214,0.374
				l0.207,0.25l0.159,0.571l0.294,0.694l0.101,0.705l0.109,0.834l0.132,2.51l-0.021,0.841l0.037,0.708l-0.025,0.776l0.025,0.451
				l-0.089,0.78l-0.023,0.775l-0.035,0.582l-0.077,0.974l-0.343,0.857l-0.559,0.415l-1.285,0.133l-1.098-0.008l-1.026,0.119
				l-0.646-0.03l-1.803,0.093l-0.712-0.027l-0.657-0.223l-0.091-0.512l0.026-0.712l0.075-1.037l0.085-0.843l0.105-0.457
				l-0.096-0.577l0.133-1.168l-0.088-0.446l-0.101-0.705l-0.086-0.384l-0.346-0.434l-0.405-0.365l-0.657-0.225l-1.417,0.074
				l-0.443,0.153l-0.563,0.352l-0.488,0.541l-0.174,0.398l-0.233,0.463l-0.169,0.461l-0.045,0.389l-0.349,0.729l-0.342,0.857
				l-0.153,0.784l-0.037,0.517l-0.17,0.461l0.023,0.45l-0.228,0.593l-0.044,0.388l-0.104,0.459l-0.089,0.778l-0.229,0.529
				l-0.042,0.455l-0.084,0.842l-0.17,0.461l-0.096,0.649l-0.033,0.582l-0.162,0.592l-0.15,0.847l-0.026,0.71l-0.194,1.237
				l-0.148,0.847l-0.105,0.457l-0.021,0.84l-0.107,0.395l-0.016,0.904l0.023,0.451l-0.161,0.652l-0.156,0.719l0.038,0.709
				l-0.019,0.903l-0.02,0.841l-0.041,0.455l-0.044,0.388l-0.021,0.841l-0.017,0.906l0.051,0.966l0.098,0.64l0.033,0.643l0.417,0.561
				l0.28,0.436l0.204,0.185l0.661,0.288l1.232,0.128l1.223-0.063l0.76-0.299l0.686-0.488l0.42-0.602l0.227-0.593l0.281-0.791
				l0.162-0.589l0.16-0.653l0.309-1.501l0.189-2.526l-0.145-0.317l-0.455-0.041l-1.48,0.078l-0.406-0.364l-0.041-0.772l0.231-1.756
				l0.112-1.556l0.096-0.649l0.037-0.518l0.248-1.436l0.05-0.26l0.302-0.404l1.542-0.145l0.519,0.037l1.026-0.119l1.034,0.01
				l2.317-0.12l0.446-0.089l0.905,0.018l1.352-0.071l0.79,0.282l0.084,1.608l-0.086,0.844l0.027,0.516l-0.088,0.779l-0.037,0.518
				l-0.045,0.391l-0.041,0.453l0.021,0.388l-0.15,0.847l-0.107,0.393l0.088,0.447l-0.108,0.393l-0.086,0.845l-0.04,0.453
				l-0.152,0.783l-0.041,0.453l-0.088,0.779l-0.092,0.716l-0.074,1.037l-0.211,0.914l-0.169,0.461l-0.065,1.229l-0.176,0.333
				l-0.102,0.522l-0.164,0.59l-0.277,0.854l-0.233,0.465l-0.108,0.392l-0.105,0.457l-0.4,0.989l-0.232,0.464l-0.537,0.867
				l-0.722,1.007l-0.745,0.554l-0.377,0.216l-0.494,0.414l-0.816,0.428l-0.945,0.438l-1.344,0.265l-0.317,0.08l-0.892,0.241
				l-1.02,0.248l-1.415,0.073l-0.642,0.099L107.897,70.778z"/>
			<path fill="#FFFFFF" d="M127.987,69.208l-0.838,0.043l-2.001-0.023l-0.586-0.097l-0.15-0.381l-0.03-0.58l0.159-0.652l0.031-0.646
				l0.026-0.715l-0.023-0.449l0.11-0.391l-0.025-0.453l0.17-0.461l-0.02-0.385l0.04-0.455l0.146-0.912l-0.023-0.449l0.166-0.525
				l-0.088-0.447l0.165-0.526l0.018-0.903l0.102-0.521l0.041-0.455l-0.092-0.512l0.23-0.527l-0.051-0.967l0.262-1.175l-0.03-0.58
				l0.095-0.649l0.016-0.97l-0.029-0.516l0.211-0.914l0.04-0.453l0.038-0.519l-0.029-0.58l0.297-0.467l0.109-0.394l-0.085-0.384
				l0.023-0.775l0.105-0.457l0.173-0.396l-0.02-0.388l0.104-0.457l0.092-0.714l0.045-0.39l0.085-0.843l0.082-0.908l-0.028-0.515
				l0.252-1.369l-0.024-0.451l0.044-0.39l0.041-0.453l0.086-0.845l0.044-0.39l-0.024-0.45l0.045-0.39l0.217-0.785l0.017-0.907
				l0.044-0.388l0.146-0.914l0.141-1.039l0.145-0.911l0.045-0.389l-0.021-0.388l0.021-0.839l-0.021-0.386l0.105-0.457l0.152-0.782
				l0.14-1.042l0.163-1.815l0.038-0.519l0.04-0.454l-0.027-0.516l0.231-0.528l-0.102-0.705l0.239-0.335l0.425-0.538l0.636-0.164
				l0.901-0.046l3.866-0.138l2.768-0.146l0.447-0.088l0.643-0.097l0.521,0.101l0.974,0.08l0.578-0.031l0.844,0.083l0.969,0.015
				l0.715,0.091l1.029-0.054l0.522,0.102l0.726,0.286l0.594,0.226l0.457,0.105l0.6,0.356l0.396,0.173l0.331,0.175l0.796,0.411
				l0.271,0.243l0.342,0.37l0.273,0.307l0.492,0.75l0.498,0.877l0.248,1.02l0.191,1.216l0.023,0.45l0.259,1.213l0.026,0.517
				l-0.147,0.91l-0.04,0.455l0.115,0.961l0.024,0.451l-0.14,1.042l-0.074,1.035l-0.16,0.654l-0.217,0.786l-0.105,0.458l-0.107,0.394
				l-0.17,0.459l-0.282,0.792l-0.536,0.867l-0.169,0.459l-0.227,0.595l-0.471,0.862l-0.173,0.396l-0.665,0.873l-0.305,0.34
				l-0.851,1.012l-1.243,0.902l-0.879,0.5l-0.447,0.088l0.03,0.579l0.221,0.505l0.372,0.948l0.03,0.579l0.173,0.83l0.277,0.374
				l0.092,0.511l0.173,0.83l0.213,0.375l0.237,0.828l0.149,0.38l0.176,0.896l0.217,0.439l0.155,0.509l0.302,0.823l0.02,0.387
				l0.373,0.948l0.173,0.829l0.829,2.281l0.178,0.896l0.506,1.069l0.105,0.77l0.087,0.446l0.16,0.573l0.515,1.199l-0.148,0.848
				l-0.319,0.082l-0.7,0.164l-0.838,0.045l-1.341,0.266l-1.665,0.279l-0.836,0.043l-0.704,0.102l-0.516,0.027l-0.575,0.095
				l-0.391-0.044l-0.61-0.549l-0.146-0.314l-0.234-0.763l-0.145-0.315l-0.23-0.697l-0.436-0.945l-0.027-0.516l-0.22-0.506
				l-0.141-0.186l-0.173-0.83l-0.215-0.441l-0.023-0.449l-0.214-0.377l-0.089-0.446l-0.23-0.699l-0.291-0.629l-0.041-0.774
				l-0.446-1.139l-0.088-0.445l-0.298-0.76l-0.153-0.444l-0.173-0.829l-0.301-0.826l-0.111-0.896l-0.146-0.316l-0.239-0.891
				l-0.162-0.636l-0.284-0.502l-0.157-0.51l-0.284-0.5l-0.271-0.244l-0.453-0.041l-0.052,0.26l-0.108,0.395l-0.146,0.909
				l-0.036,0.521l-0.122,1.362l0.058,1.095l-0.278,0.854l-0.082,0.906l0.021,0.387l-0.082,0.909l-0.23,0.528l0.071,1.352
				l-0.103,0.521l-0.186,1.365l-0.039,0.519l-0.109,0.394l0.029,0.514l-0.146,0.912l0.084,0.383l-0.104,0.457l0.021,0.387
				l-0.021,0.84l-0.042,0.455l0.021,0.386l-0.041,0.454l-0.024,0.775l-0.17,0.461l-0.162,0.59l-0.647-0.031l-0.575,0.096
				l-0.964,0.113l-0.51,0.094L127.987,69.208z M138.315,42.136l0.763-0.234l0.373-0.277l0.624-0.42l0.438-0.281l0.424-0.539
				l0.235-0.398l0.432-0.412l0.278-0.854l0.102-0.522l0.044-0.39l0.402-0.926l-0.025-0.513l0.165-0.526l0.011-1.033l-0.138-1.413
				l-0.265-1.342l-0.352-0.563l-0.475-0.426l-0.597-0.292l-1.426-0.119l-1.548,0.018l-0.569,0.222l-0.156,0.719l-0.169,0.46
				l-0.076,1.037l-0.014,0.968l-0.021,0.84l-0.102,0.523l-0.14,1.039l0.023,0.453l-0.078,0.973l-0.162,0.588l0.095,0.576
				l-0.099,0.585l-0.139,1.041l-0.041,0.455l0.088,0.446l-0.037,0.52l1.102,0.071L138.315,42.136z"/>
			<path fill="#FFFFFF" d="M163.479,68.122l-0.833,0.109l-0.455-0.041l-0.583-0.033l-1.503-0.373l-0.519-0.037l-0.979-0.207
				l-0.466-0.234l-0.931-0.531l-1.209-0.905l-0.956-0.983l-0.211-0.313l-0.338-0.305l-0.214-0.377l-0.344-0.432l-0.559-0.81
				l-0.021-0.386l-0.217-0.442l-0.083-0.382l-0.147-0.315l-0.148-0.381l-0.089-0.446l-0.148-0.379l-0.112-0.897l-0.084-0.384
				l-0.261-1.276l0.105-0.458l-0.063-1.224l0.158-0.653l-0.09-0.512l-0.023-0.451l0.054-1.422l0.21-0.916l-0.027-0.515l0.082-0.909
				l-0.023-0.451l0.211-0.913l-0.146-0.315l0.084-0.842l0.105-0.457l0.132-1.172l0.153-0.781l-0.043-0.838l0.152-0.781l-0.023-0.451
				l0.173-0.398l0.104-0.456l-0.021-0.387l0.106-0.458l-0.083-0.382l0.351-0.663l0.105-0.458l-0.048-0.901l0.089-0.78l0.17-0.461
				l0.044-0.389l0.081-0.908l0.173-1.623l0.299-0.467l0.086-0.844l0.342-0.858l0.168-0.461l0.219-0.785l0.274-0.92l0.346-0.792
				l0.232-0.464l0.536-0.867l0.041-0.455l0.237-0.399l0.472-0.865l0.475-0.799l0.433-0.345l0.302-0.404l0.852-1.013l0.807-0.622
				l0.504-0.222l0.435-0.345l0.749-0.492l0.751-0.425l0.953-0.309l0.382-0.085l0.953-0.309l0.641-0.097l1.148-0.254l0.897-0.112
				l0.77-0.104l1.161,0.004l0.391,0.044l0.712,0.026l1.036,0.075l0.524,0.166l0.521,0.037l0.392,0.11l0.989,0.399l1.199,0.714
				l0.531,0.293l0.343,0.371l0.738,0.542l0.743,0.607l0.341,0.37l0.217,0.44l0.431,0.817l0.213,0.375l0.148,0.379l0.154,0.444
				l0.242,0.957l0.193,1.217l0.092,0.511l0.023,0.451l-0.021,0.838l-0.044,0.391L180,32.335l0.023,0.45l-0.02,0.839l-0.105,0.459
				l-0.044,0.389l0.089,0.446l0.032,0.645l-0.044,0.389l-0.081,0.908l-0.015,0.971l-0.009,1.032l-0.105,0.458l-0.076,1.037
				l0.099,0.641l-0.285,0.725l0.104,0.77l-0.213,0.851l-0.084,0.844l-0.151,0.845l-0.022,0.777l-0.149,0.846l-0.173,0.396
				l-0.132,1.169l0.029,0.58l-0.104,0.455l-0.082,0.909l-0.173,0.397l-0.526,2.286l0.085,0.382l-0.281,0.789l-0.173,0.397
				l-0.027,0.712l-0.285,0.726l-0.153,0.78l0.024,0.453l-0.155,0.719l-0.299,0.465l-0.032,0.648l-0.402,0.924l-0.455,1.188
				l-0.297,0.466l-0.535,0.867l-0.237,0.398l-0.302,0.405l-0.109,0.392l-0.731,0.813l-0.37,0.343l-0.301,0.403l-0.742,0.618
				l-0.745,0.557l-0.248,0.206l-1.451,0.656l-0.446,0.089l-0.509,0.156l-0.89,0.24l-0.449,0.088l-0.696,0.229l-1.406,0.269
				L163.479,68.122z M165.025,59.456l0.889-0.303l0.564-0.289l0.869-0.689l0.402-0.926l0.34-0.922l0.105-0.459l-0.028-0.514
				l0.142-0.975l0.105-0.459l0.082-0.907l0.167-0.526l0.017-0.902l0.17-0.461l0.149-0.848l0.036-0.52l0.173-0.396l-0.025-0.515
				l-0.075-0.188l0.163-0.591l0.143-0.975l0.051-1.487l0.163-0.591l0.166-0.523l0.064-1.229l0.172-0.397l-0.121-1.092l0.207-0.978
				l0.088-0.779l0.102-0.523l0.105-0.457l-0.087-0.448l0.019-0.839l0.102-0.522l0.146-0.912l0.099-0.586l-0.044-0.836l0.068-1.165
				l0.021-0.84l0.081-0.908l-0.324-1.274l-0.278-0.373l-0.481-0.555l-1.053-0.398l-1.221,0.129l-0.508,0.155l-1.01,0.44
				l-0.613,0.615l-0.412,0.732l-0.219,0.786l-0.232,0.464l-0.343,0.855l-0.105,0.459l-0.102,0.521l-0.315,1.373l0.007,0.127
				l-0.038,0.519l-0.145,0.912l-0.046,0.391l-0.209,0.914l-0.146,0.912l-0.138,1.039l-0.043,0.454l-0.104,0.457l-0.078,0.974
				l-0.167,0.524l-0.204,1.043l-0.104,0.458l-0.081,0.909l0.023,0.45l-0.041,0.454l0.092,0.512l-0.17,0.461l-0.275,0.919
				l0.092,0.511l-0.104,0.457l0.077,0.254l-0.1,0.586l0.028,0.516l-0.105,0.457l0.025,0.516l-0.141,0.977l0.023,0.45l-0.17,0.46
				l0.217,0.441l-0.024,0.775l-0.223,0.656l0.216,0.441l0.094,1.803l0.217,0.439l0.143,0.252l0.417,0.559l0.34,0.306l0.523,0.166
				l0.522,0.101l0.391,0.045L165.025,59.456z"/>
			<path fill="#FFFFFF" d="M189.678,65.975l-0.459-0.104l-0.263-0.114l-1.114-0.33l-0.462-0.17l-0.396-0.172l-1.328-0.705
				l-0.679-0.611l-0.409-0.43l-0.341-0.369l-0.351-0.498l-0.074-0.19l-0.568-1.003l-0.563-0.875l-0.312-1.016l-0.112-0.898
				l-0.371-2.176l0.043-0.389l-0.049-2.192l0.098-0.587l0.166-1.75l0.021-0.842l0.013-0.968l0.09-0.779l0.096-0.652l-0.045-0.834
				l0.218-0.786l0.041-0.455l0.044-0.389l0.152-0.783l-0.088-0.448l0.04-0.454l0.153-0.782l0.104-0.458l-0.044-0.836l0.213-0.851
				l0.018-0.905l0.15-0.847l0.21-0.914l-0.026-0.518l0.017-0.903l0.174-0.396l0.097-1.813l0.11-0.393l0.084-0.842l-0.024-0.452
				l0.045-0.389l0.276-0.854l0.043-0.455l0.037-0.518l0.146-0.912l0.038-0.517l-0.028-0.516l0.146-0.911l-0.023-0.452l0.109-0.392
				l0.098-1.814l0.278-0.854l0.112-0.328l0.094-0.65l0.082-0.908l0.21-0.916l0.103-0.522l0.378-0.148l1.092-0.122l0.323-0.017
				l0.575-0.095l2.706-0.078l1.539-0.211l0.582,0.034l1.034,0.011l0.603,0.42l0.116,0.963l0.047,0.901l-0.109,0.392l-0.105,0.459
				l0.112,0.897l-0.104,0.458l-0.099,0.585l-0.103,0.521l-0.04,0.455l-0.109,0.393l0.023,0.451l-0.216,0.787l-0.086,0.842
				l-0.036,0.518l0.033,0.645l-0.04,0.453l-0.274,0.918l-0.038,0.52l-0.144,0.976l-0.077,0.972l-0.044,0.389l-0.17,0.461
				l-0.031,0.647l-0.04,0.453l-0.103,0.521l0.023,0.451l-0.273,0.919l-0.045,0.388l0.174,0.831l-0.228,0.593l-0.035,0.583
				l-0.036,0.518l-0.105,0.459l-0.108,0.392l-0.153,0.783l0.043,0.836l-0.212,0.851l-0.088,0.779l-0.201,2.334l-0.126,1.297
				l-0.018,0.906l-0.148,0.847l-0.112,1.554l-0.034,0.583l-0.043,0.39l-0.041,0.453l0.118,1.029l0.036,0.707l0.104,0.77l0.755,0.8
				l0.716,0.155l1.363,0.123l1.471-0.271l0.617-0.549l0.359-0.535l0.173-0.396l0.396-1.054l0.289-0.66l0.097-0.586l0.109-0.395
				l0.254-1.303l0.146-0.912l0.106-0.459l0.029-0.647l0.109-0.391l0.098-0.588l0.034-0.582l0.105-0.456l0.102-0.523l0.041-0.453
				l0.085-0.844l0.094-0.65l0.197-1.171l0.024-0.776l0.104-0.457l0.276-0.919l-0.028-0.516l0.084-0.842l0.15-0.848l0.089-0.778
				l0.209-0.916l0.038-0.517l0.21-0.916l-0.026-0.515l0.082-0.908l0.047-0.326l-0.047-0.901l0.352-0.664l-0.102-0.705l0.211-0.915
				l0.037-0.52l0.082-0.908l0.037-0.519l0.146-0.91l0.082-0.909l0.084-0.844l-0.087-0.448l0.283-0.725l0.045-0.391l0.024-0.774
				l0.044-0.39l0.148-0.848l0.146-0.912l0.148-0.845l0.038-0.52l0.169-0.461l1.928-0.165l0.451-0.024l0.455,0.041l1.862-0.163
				l0.45-0.023l0.455,0.041l0.516-0.026l0.446-0.088l0.647,0.03l0.447-0.088l0.576-0.095l0.518,0.037l0.543,0.489l0.115,0.962
				l-0.34,0.922l-0.015,0.97l-0.101,0.52l-0.082,0.908l-0.037,0.52l-0.21,0.915l-0.041,0.453l-0.101,0.524l-0.043,0.453
				l-0.213,0.851l0.084,0.382l-0.216,0.787l0.02,0.386l-0.155,0.717l-0.1,0.586l-0.162,0.59l-0.099,0.586l-0.151,0.783l0.023,0.45
				l-0.105,0.458l-0.045,0.388l-0.104,0.459l0.087,0.446l-0.376,1.44l-0.143,0.976l0.021,0.387l-0.146,0.912l-0.045,0.389
				l-0.082,0.908l-0.017,0.906l-0.21,0.914l0.023,0.451l-0.081,0.908l-0.23,0.529l-0.022,0.84l-0.088,0.778l-0.148,0.849
				l-0.211,0.915l-0.039,0.453l-0.146,0.912l0.006,0.128l-0.218,0.786l-0.149,0.848l0.021,0.387l-0.104,0.456l-0.156,0.718
				l-0.099,0.587l0.024,0.45l-0.109,0.395l-0.105,0.457l-0.217,0.785l-0.214,0.852l-0.136,1.104l-0.302,0.404l-0.148,0.847
				l-0.406,0.86l-0.238,0.398l-0.339,0.922l-0.233,0.465l-0.299,0.467l-0.227,0.594l-0.355,0.6l-0.557,0.48l-0.482,0.671
				l-0.562,0.353l-0.498,0.349l-0.757,0.362l-0.309,0.273l-1.008,0.441l-0.381,0.149l-0.763,0.233l-0.571,0.158l-0.379,0.15
				l-1.281,0.195l-1.481,0.077l-0.962,0.116l-1.287,0.067L189.678,65.975z"/>
			<path fill="#FFFFFF" d="M210.886,64.799l-0.362-0.757l0.102-0.521l-0.055-1.031l0.076-1.035l0.209-0.916l0.042-0.453l0.146-0.91
				l0.112-0.33l0.144-0.91l0.1-0.588l0.14-1.04l-0.024-0.45l0.103-0.521l-0.044-0.838l0.234-0.463l0.023-0.775l0.041-0.453
				l0.152-0.783l0.043-0.391l-0.086-0.446l0.084-0.845l0.205-1.043l0.087-0.779l0.099-0.586l0.156-0.718l0.088-0.78l0.041-0.454
				l0.109-0.394l0.019-0.838l0.044-0.39l-0.02-0.387l0.282-0.789l0.044-0.39l0.041-0.455l0.018-0.903l0.029-0.648L213.588,40
				l0.102-0.524l0.097-0.65l-0.048-0.901l0.036-0.518l0.167-0.525l-0.027-0.515l0.169-0.461l-0.023-0.451l0.105-0.457l0.085-0.844
				l0.156-0.719l0.163-0.589l-0.04-0.772l0.039-0.455l0.109-0.393l0.227-1.818l-0.023-0.451l0.229-0.594l0.098-0.585l0.021-0.841
				l0.039-0.454l0.045-0.391l0.041-0.453l0.108-0.394l0.04-0.454l0.085-0.842l0.088-0.781l0.15-0.847l-0.028-0.515l0.15-0.846
				l0.109-0.395l0.176-0.331l0.35-0.728l0.637-0.163l0.896-0.111l1.099,0.006l0.579-0.03l0.834-0.109l1.226,0.001l0.769-0.106
				l0.971,0.014l0.901-0.046l0.718,0.154l0.416,0.561l0.088,0.445l0.292,0.631l0.17,0.765l0.101,0.704l0.305,0.889l0.339,1.531
				l0.247,1.02l0.251,1.085l0.24,0.891l0.324,1.273l0.155,0.507l0.088,0.449l0.18,0.958l0.237,0.826l0.021,0.388l0.229,0.697
				l0.023,0.45l0.101,0.705l0.246,0.955l0.185,1.089l0.251,1.083l0.119,1.027l0.176,0.895l0.156,0.508l0.283,1.728l0.336,1.465
				l0.203,1.411l0.023,0.452l0.152,0.443l0.168,0.765l0.285,1.728l0.267,1.406l0.193-0.01l-0.003-1.291L232.105,46l-0.046-0.902
				l0.03-3.1l0.123-1.361l-0.115-2.191l0.146-0.91l0.044-0.392l0.04-0.453l0.039-0.518l0.016-0.906l0.109-0.392l0.082-0.91
				l-0.021-0.384l0.213-0.851l-0.04-0.772l0.025-0.776l-0.024-0.45l0.346-0.793l-0.089-0.446l0.134-1.169l-0.021-0.386l0.149-0.846
				l0.041-0.455l0.109-0.393l0.082-0.909l0.036-0.518l0.146-0.911l0.105-0.459l0.165-0.524l-0.03-0.579l0.045-0.391l0.138-1.04
				l0.188-1.364l0.468-0.929l0.247-0.205l1.211-0.323l1.358,0.058L238,18.063l0.645-0.034l1.484-0.014l0.645-0.033l0.896-0.113
				l0.912,0.147l0.397,0.172l0.091,0.513l0.026,0.514l-0.146,0.912l0.09,0.511l-0.118,1.428l-0.081,0.907l-0.307,1.564l-0.156,0.72
				l-0.131,1.169l-0.102,0.521l-0.123,1.363l-0.203,1.042l-0.074,1.038l-0.163,0.589L241.48,31.5l-0.104,0.457l0.044,0.838
				l-0.105,0.456l-0.156,1.945l-0.163,0.59l-0.026,0.712l-0.041,0.456l-0.102,0.52l-0.15,0.847l-0.105,0.458l-0.148,0.846
				l-0.082,0.907l-0.102,0.523l0.096,0.575l-0.108,0.392l-0.041,0.454l-0.108,0.392l-0.041,0.455l-0.045,0.391l0.044,0.836
				l-0.173,0.396l-0.146,0.913l-0.098,0.585l-0.035,0.582l-0.043,0.39l-0.041,0.454l-0.045,0.391l0.021,0.387l-0.212,0.913
				l-0.08,0.907l-0.096,0.652l-0.227,0.593l-0.217,0.784l-0.027,0.711l-0.021,0.842l-0.084,0.844l-0.166,0.525l-0.211,0.914
				l0.054,1.031l-0.276,0.854l0.02,0.386l-0.105,0.458l-0.148,0.846l-0.215,2.077l-0.538,0.803l-0.621,0.486l-0.896,0.11
				l-0.702,0.166l-0.258,0.012h-1.227l-0.447,0.089l-0.648-0.03l-0.381,0.084l-1.287,0.067l-0.841-0.02l-1.096,0.058l-0.538-0.424
				l-0.568-1.004l-0.369-0.883l-0.082-0.319l-0.105-0.77l-0.083-0.384l-0.2-1.344l-0.085-0.383l-0.327-1.34l-0.085-0.383
				l-0.177-0.893l-0.115-0.965l-0.229-0.697l-0.244-0.954l-0.021-0.386l-0.241-0.893l-0.084-0.382l-0.241-0.89l-0.084-0.385
				l-0.051-0.965l-0.325-1.275l-0.193-1.216l-0.352-1.79l-0.429-2.044l-0.289-1.792l-0.507-2.296l-0.516-2.426l-0.192,0.009
				l0.031,1.807l0.002,1.29l-0.026,0.712l-0.072,1.101l0.021,1.612l-0.289,3.114l-0.127,2.524l-0.108,0.394l-0.15,0.847l0.154,0.444
				l-0.154,0.782l-0.104,0.457l0.089,0.447l-0.046,0.391l-0.082,0.908l-0.205,0.978l-0.19,1.302l-0.081,0.908l-0.045,0.391
				l-0.105,0.456l-0.159,1.881l-0.149,0.847l-0.04,0.453l0.044,0.838l-0.109,0.394l-0.132,1.169l-0.218,0.785l-0.158,0.654
				l-0.695,0.295l-6.824,0.357L210.886,64.799z"/>
			<path fill="#FFFFFF" d="M253.022,62.655l-0.84-0.021l-0.833,0.108l-0.973-0.078l-0.77,0.105l-0.518-0.037l-0.58,0.029
				l-0.908-0.08l-0.389-0.045l-0.516,0.027l-0.447,0.088l-1.932,0.102l-0.908-0.081l-0.521-0.104l-0.078-1.479l0.035-0.582
				l0.281-0.791l0.081-0.908l0.044-0.391l0.146-0.91l0.094-0.65l0.103-0.521l-0.027-0.514l0.082-0.909l0.037-0.519l0.091-0.715
				l0.232-0.529l0.094-0.649l-0.027-0.516l0.146-0.911l0.102-0.521l0.021-0.841l0.044-0.39l0.234-0.464l-0.074-1.417l0.146-0.91
				l0.037-0.519l0.146-0.912l0.039-0.453l0.086-0.843l0.105-0.458l0.152-0.784l0.043-0.388l0.218-0.786l-0.067-1.288l0.105-0.458
				l0.108-0.395l0.146-0.909l0.109-0.394l0.227-1.82l0.17-0.459l0.104-0.458l0.041-0.455l-0.02-0.384l0.041-0.455l0.087-0.78
				l0.041-0.453l0.152-0.783l-0.02-0.386l0.088-0.78l0.217-0.787l-0.046-0.901l0.036-0.518l0.059-1.358l0.088-0.778l0.262-1.177
				l0.105-0.457l-0.021-0.387l0.041-0.454l0.149-0.846l0.081-0.908l0.088-0.78l0.174-0.396l0.04-0.453l0.024-0.776l0.105-0.457
				l0.159-0.655l0.118-0.199l0.157-0.718l0.632-0.228l0.451-0.024l0.776,0.025l0.454,0.041l1.022-0.184l0.516-0.028l1.419-0.008
				l1.284-0.133l1.61-0.085l0.711,0.028l0.383-0.083l1.031-0.054l0.518,0.037l0.582,0.035l0.975,0.077l0.449-0.024l0.524,0.167
				l0.916,0.211l0.128-0.007l0.393,0.108l1.112,0.265l0.332,0.174l0.263,0.116l0.664,0.352l0.469,0.299l0.402,0.301l1.033,1.237
				l0.557,0.746l0.273,0.309l0.353,0.563l0.306,0.888l0.436,0.945l0.281,0.438l0.25,1.085l0.024,0.45l0.368,0.884l-0.04,0.453
				l0.195,1.281l0.109,0.834l-0.173,0.396l0.24,0.891l0.085,0.38l-0.042,0.457l0.154,0.443l-0.042,0.455l0.02,0.386l-0.138,1.041
				l0.023,0.45l-0.07,1.102l-0.043,0.453l0.096,1.805l-0.27,1.046l0.024,0.45l-0.191,1.238l-0.079,0.972l-0.052,1.487l-0.102,0.523
				l-0.167,0.524l-0.03,0.646l-0.314,1.374l-0.021,0.839l-0.088,0.78l-0.169,0.459l-0.407,0.863l-0.108,0.392l-0.027,0.712
				l-0.344,0.855l-0.043,0.391l-0.211,0.916l-0.402,0.924l-0.384,1.311l-0.288,0.661l-0.488,0.542l-0.044,0.389l-0.297,0.469
				l-0.303,0.402l-0.409,0.797l-0.846,1.142l-0.863,0.755l-0.553,0.546l-0.373,0.278l-0.816,0.43l-0.697,0.23l-0.621,0.482
				l-0.887,0.307l-0.638,0.161l-1.022,0.183l-0.695,0.295l-1.994,0.105l-0.449,0.088l-0.321,0.018l-0.447,0.087L253.022,62.655z
				 M255.723,53.799l0.633-0.227l0.502-0.285l0.688-0.422l0.309-0.275l0.488-0.543l0.422-0.538l0.174-0.396l0.234-0.465l0.224-0.656
				l0.288-0.661l0.277-0.854l0.322-1.244l0.156-0.717l0.146-0.912l0.214-0.851l0.044-0.391l0.111-0.327l0.107-0.394l0.152-0.782
				l0.041-0.455l0.087-0.843l0.081-0.908l0.077-0.973l0.041-0.455l0.103-0.521l0.273-0.918l-0.047-0.901l0.123-1.361l0.043-0.39
				l0.06-1.36l-0.137-1.349l-0.032-1.869l-0.221-1.731l-0.09-0.513l-0.445-1.073l-0.493-0.813l-0.403-0.303l-0.336-0.239
				l-1.111-0.265l-1.037-0.075l-0.84-0.02l-0.576,0.095l-0.166,0.525l-0.17,0.46l0.02,0.386l-0.104,0.457l-0.143,0.977l-0.211,0.914
				l-0.084,0.843l-0.082,0.908l-0.055,1.423l-0.044,0.39l-0.105,0.457l0.023,0.451l-0.038,0.52l-0.172,0.396l0.02,0.386
				l-0.145,0.911l-0.076,1.039l0.023,0.45l-0.145,0.911l-0.109,0.395l-0.146,0.91l0.021,0.385l-0.146,0.913l-0.104,0.457
				l0.085,0.384l-0.105,0.458l-0.17,1.686l0.044,0.838l-0.044,0.389l-0.274,0.919l0.02,0.386l-0.143,0.977l-0.195,1.172
				l-0.042,0.453l-0.211,0.915l-0.078,0.973L253.109,52l-0.135,1.104l-0.1,0.587l0.916,0.21L255.723,53.799z"/>
		</g>
	</g>
</g>
<g>
	<rect x="56.08" fill="#FFFFFF" width="6.891" height="17.542"/>
	<polygon fill="#FFFFFF" points="77.58,17.542 77.58,7.037 82.674,7.037 82.674,0 65.35,0 65.35,7.037 70.689,7.037 70.689,17.542 	
		"/>
	<rect x="84.914" fill="#FFFFFF" width="6.893" height="17.542"/>
	<rect x="25.143" fill="#FFFFFF" width="6.887" height="17.542"/>
	<polygon fill="#FFFFFF" points="46.127,17.542 53.014,17.542 53.014,0 35.566,0 35.566,17.542 42.453,17.542 42.453,7.037 
		46.127,7.037 	"/>
</g>
</svg>
